<svg width="488" height="647" viewBox="0 0 488 647" fill="none" xmlns="http://www.w3.org/2000/svg">
<path d="M272.475 1.57489C125.75 -14.8751 0.924805 99.5499 0.924805 242.625C0.924805 298.625 19.1498 348.375 59.7998 403.675L217.55 631.7C223.775 640.675 234 646.05 244.95 646.05C255.975 646.05 266.275 640.6 272.4 631.625L376.725 481.8L435.325 392.6C476.7 340.25 494.35 274.65 485.025 207.9C470.025 100.55 380.625 13.7749 272.475 1.57489ZM415.05 378L356 467.8L251.8 617.45C249.575 620.7 246.25 621.075 244.95 621.075C243.65 621.075 240.325 620.725 238.1 617.5L80.1498 389.175C42.6498 338.15 25.9248 292.925 25.9248 242.625C25.9248 122.625 123.85 24.9999 244.2 24.9999C252.575 24.9999 261.075 25.4749 269.65 26.4499C366.65 37.3749 446.8 115.15 460.25 211.375C468.625 271.3 452.8 330.15 415.05 378Z" fill="#808184"/>
<path d="M242.925 117.625C174 117.625 117.925 173.7 117.925 242.625C117.925 311.55 174 367.625 242.925 367.625C311.85 367.625 367.925 311.55 367.925 242.625C367.925 173.7 311.825 117.625 242.925 117.625ZM242.925 342.625C187.775 342.625 142.925 297.775 142.925 242.625C142.925 187.475 187.775 142.625 242.925 142.625C298.075 142.625 342.925 187.475 342.925 242.625C342.925 297.775 298.05 342.625 242.925 342.625Z" fill="#808184"/>
</svg>
