<svg width="668" height="428" viewBox="0 0 668 428" fill="none" xmlns="http://www.w3.org/2000/svg">
<path d="M640.1 0.75H0.799805V427.25H667.2V0.75H640.1ZM613.425 27.4L355.975 284.85C344.225 296.6 323.75 296.6 312 284.85L54.4998 27.4H613.425ZM27.4498 38.025L200.525 211.075L27.4498 384.15V38V38.025ZM48.7248 400.6L219.4 229.95L293.175 303.7C304.075 314.6 318.575 320.625 334 320.625C349.425 320.625 363.925 314.6 374.825 303.7L448.6 229.925L619.25 400.575H48.6998L48.7248 400.6ZM640.55 384.175L467.475 211.075L640.55 37.975V384.175Z" fill="#808184"/>
</svg>
