<svg width="800" height="800" viewBox="0 0 800 800" fill="none" xmlns="http://www.w3.org/2000/svg">
<path d="M789.6 649.975C789.6 639.95 785.675 630.525 778.575 623.425L614.65 459.95C600.5 445.8 575.825 445.825 561.675 459.925L510.55 510.95C503.45 518.025 499.55 527.45 499.55 537.5C499.55 542.925 500.775 548.125 502.95 552.925C435.575 601.2 329.275 497.95 328.375 497.05C324.2 492.75 308 476.575 303.875 472.6C302.775 471.5 198.325 364.675 248.35 297.45C252.425 298.925 256.75 299.825 261.2 299.825C271.2 299.825 280.6 295.95 287.675 288.875L338.8 237.9C345.9 230.8 349.825 221.375 349.825 211.35C349.825 201.325 345.9 191.9 338.8 184.8L174.875 21.2499C160.725 7.1999 136.075 7.1999 121.925 21.2499L70.7749 72.2749C63.6749 79.3499 59.7499 88.7749 59.7499 98.7999C59.7499 101.8 60.1999 104.7 60.8749 107.55C37.6999 126.8 -30.0751 194.875 15.3249 302.9C43.7249 370.425 92.0499 463.65 214.65 585.875C337.225 708.15 430.65 756.35 498.35 784.675C524.4 795.6 548.125 799.925 569.45 799.925C638.3 799.925 681.675 754.55 695.275 737.9C697.15 738.175 699.025 738.45 700.95 738.45C710.95 738.45 720.35 734.575 727.425 727.5L778.55 676.525C785.675 669.425 789.6 660 789.6 649.975ZM88.4249 89.9749L139.55 38.9749C141.9 36.5999 145.05 35.3249 148.375 35.3249C151.7 35.3249 154.85 36.6249 157.2 38.9749L321.15 202.5C323.525 204.85 324.825 208 324.825 211.35C324.825 214.7 323.525 217.85 321.15 220.2L270.025 271.175C265.325 275.925 257.075 275.85 252.35 271.2L88.4249 107.675C86.0499 105.3 84.7499 102.15 84.7499 98.7999C84.7499 95.4499 86.0499 92.2999 88.4249 89.9749ZM508.025 761.65C442.425 734.175 351.825 687.4 232.325 568.2C112.825 449.025 65.8999 358.65 38.3999 293.225C0.374916 202.75 53.1499 146.625 74.2249 128.775L228.3 282.475C165.075 366.2 280.975 485 286.35 490.4C290.55 494.45 306.35 510.2 310.6 514.6C314.7 518.65 389.5 591.525 462.075 591.525C481.675 591.525 501 585.7 518.85 572.275L672.925 725.925C654.95 746.95 598.65 799.475 508.025 761.65ZM760.925 658.85L709.8 709.85C705.1 714.55 696.875 714.55 692.15 709.825L528.225 546.35C525.85 543.975 524.575 540.825 524.575 537.5C524.575 534.175 525.875 531 528.225 528.65L579.375 477.625C581.725 475.275 584.85 473.975 588.2 473.975C591.55 473.975 594.65 475.275 597.025 477.625L760.95 641.125C763.325 643.475 764.625 646.625 764.625 649.975C764.625 653.325 763.3 656.475 760.925 658.85Z" fill="#808184"/>
</svg>
